<?xml version="1.0" standalone="no"?>
<!DOCTYPE svg PUBLIC "-//W3C//DTD SVG 20010904//EN"
 "http://www.w3.org/TR/2001/REC-SVG-20010904/DTD/svg10.dtd">
<svg version="1.0" xmlns="http://www.w3.org/2000/svg"
 width="500.000000pt" height="500.000000pt" viewBox="0 0 500.000000 500.000000"
 preserveAspectRatio="xMidYMid meet">
<metadata>
Created by potrace 1.14, written by Peter Selinger 2001-2017
</metadata>
<g transform="translate(0.000000,500.000000) scale(0.100000,-0.100000)"
fill="#000000" stroke="none">
<path d="M0 2500 l0 -2500 2500 0 2500 0 0 2500 0 2500 -2500 0 -2500 0 0
-2500z m1548 677 c106 -56 161 -124 202 -252 20 -60 23 -89 22 -211 -1 -120
-5 -152 -26 -220 -30 -94 -70 -158 -134 -214 -96 -85 -184 -121 -349 -140
-134 -16 -140 -17 -149 -37 -4 -10 -10 -65 -13 -123 l-6 -105 -259 0 -258 0
-2 668 -3 668 461 -3 461 -3 53 -28z m1342 7 c0 -88 107 -649 202 -1054 27
-118 52 -225 55 -237 l5 -23 -289 0 -290 0 -7 98 c-7 116 -29 221 -48 233 -21
14 -64 10 -78 -6 -6 -8 -16 -65 -22 -127 -5 -62 -11 -132 -14 -155 l-5 -43
-255 0 c-214 0 -254 2 -254 14 0 8 6 45 14 83 8 38 31 176 51 308 20 132 58
350 85 485 27 135 54 286 61 335 6 50 13 96 15 103 3 9 89 12 389 12 l385 0 0
-26z m884 -51 c15 -176 30 -273 43 -285 29 -24 43 14 68 188 14 93 25 170 25
172 0 1 120 2 266 2 248 0 265 -1 260 -17 -2 -10 -25 -94 -51 -186 -61 -222
-102 -338 -176 -499 l-62 -133 -10 -252 -10 -253 -310 0 -309 0 3 248 4 247
-47 110 c-63 150 -218 660 -218 719 0 14 25 16 259 16 l258 0 7 -77z"/>
<path d="M1134 2879 c-16 -18 -19 -40 -22 -166 -2 -79 -1 -155 2 -168 14 -54
67 -72 102 -34 16 18 19 40 22 168 4 176 -7 221 -56 221 -17 0 -37 -9 -48 -21z"/>
<path d="M2467 2788 c-3 -13 -11 -70 -18 -128 -10 -89 -10 -111 2 -135 16 -34
42 -43 66 -24 22 19 14 246 -11 283 -20 32 -32 33 -39 4z"/>
</g>
</svg>
